<svg width="5168" height="5137" viewBox="0 0 5168 5137" fill="none" xmlns="http://www.w3.org/2000/svg">
<circle cx="2500" cy="2636.7" r="1675.5" stroke="#4E4E4E" stroke-width="149"/>
<circle cx="2500" cy="2636.7" r="2425" stroke="#4E4E4E" stroke-width="150"/>
<circle cx="2500" cy="2636.7" r="925.5" stroke="#4E4E4E" stroke-width="149"/>
<g filter="url(#filter0_i_485_224)">
<path d="M4357.3 773.95L2707.21 2403.97C2671.96 2438.79 2612.97 2406.64 2623.13 2358.14L3101.76 73.9007C3107.48 46.5979 3134.48 29.2305 3161.62 35.6667C3683.27 159.362 4037.86 350.873 4359.49 705.741C4377.24 725.327 4376.1 755.374 4357.3 773.95Z" fill="url(#paint0_linear_485_224)"/>
</g>
<circle cx="2500" cy="2636.7" r="344" fill="#4E4E4E"/>
<g filter="url(#filter1_d_485_224)">
<circle cx="750" cy="971.703" r="325" fill="#64E380"/>
<path d="M836.067 1082.57L845.984 1114.91C824.425 1126.98 800.709 1133.01 774.838 1133.01C741.493 1133.01 712.604 1123.53 688.17 1104.56C664.023 1085.58 647.063 1060.72 637.29 1029.96H593.309V998.485H630.391C629.241 989.861 628.666 983.25 628.666 978.65C628.666 974.051 629.241 967.152 630.391 957.953H593.309V926.908H637.29C647.063 895.863 664.023 870.854 688.17 851.882C712.604 832.909 741.493 823.423 774.838 823.423C800.709 823.423 824.425 829.46 845.984 841.533L836.067 874.303C818.244 865.105 798.266 860.505 776.132 860.505C753.997 860.505 734.163 866.542 716.628 878.615C699.381 890.401 686.589 906.498 678.252 926.908H820.544L811.489 957.953H669.198C668.335 964.277 667.904 971.033 667.904 978.219C667.904 985.406 668.335 992.161 669.198 998.485H799.416L790.361 1029.96H678.252C686.589 1050.08 699.381 1066.18 716.628 1078.25C734.163 1090.04 753.854 1095.93 775.701 1095.93C797.547 1095.93 817.669 1091.48 836.067 1082.57Z" fill="white"/>
</g>
<g filter="url(#filter2_d_485_224)">
<circle cx="1665" cy="2980.7" r="325" fill="#64E380"/>
<path d="M1751.07 3091.57L1760.98 3123.91C1739.42 3135.98 1715.71 3142.01 1689.84 3142.01C1656.49 3142.01 1627.6 3132.53 1603.17 3113.56C1579.02 3094.58 1562.06 3069.72 1552.29 3038.96H1508.31V3007.48H1545.39C1544.24 2998.86 1543.67 2992.25 1543.67 2987.65C1543.67 2983.05 1544.24 2976.15 1545.39 2966.95H1508.31V2935.91H1552.29C1562.06 2904.86 1579.02 2879.85 1603.17 2860.88C1627.6 2841.91 1656.49 2832.42 1689.84 2832.42C1715.71 2832.42 1739.42 2838.46 1760.98 2850.53L1751.07 2883.3C1733.24 2874.1 1713.27 2869.51 1691.13 2869.51C1669 2869.51 1649.16 2875.54 1631.63 2887.62C1614.38 2899.4 1601.59 2915.5 1593.25 2935.91H1735.54L1726.49 2966.95H1584.2C1583.34 2973.28 1582.9 2980.03 1582.9 2987.22C1582.9 2994.41 1583.34 3001.16 1584.2 3007.48H1714.42L1705.36 3038.96H1593.25C1601.59 3059.08 1614.38 3075.18 1631.63 3087.25C1649.16 3099.04 1668.85 3104.93 1690.7 3104.93C1712.55 3104.93 1732.67 3100.48 1751.07 3091.57Z" fill="white"/>
</g>
<g filter="url(#filter3_d_485_224)">
<circle cx="4839" cy="2233.7" r="325" fill="#64E380"/>
<path d="M4925.07 2344.57L4934.98 2376.91C4913.42 2388.98 4889.71 2395.01 4863.84 2395.01C4830.49 2395.01 4801.6 2385.53 4777.17 2366.56C4753.02 2347.58 4736.06 2322.72 4726.29 2291.96H4682.31V2260.48H4719.39C4718.24 2251.86 4717.67 2245.25 4717.67 2240.65C4717.67 2236.05 4718.24 2229.15 4719.39 2219.95H4682.31V2188.91H4726.29C4736.06 2157.86 4753.02 2132.85 4777.17 2113.88C4801.6 2094.91 4830.49 2085.42 4863.84 2085.42C4889.71 2085.42 4913.42 2091.46 4934.98 2103.53L4925.07 2136.3C4907.24 2127.1 4887.27 2122.51 4865.13 2122.51C4843 2122.51 4823.16 2128.54 4805.63 2140.62C4788.38 2152.4 4775.59 2168.5 4767.25 2188.91H4909.54L4900.49 2219.95H4758.2C4757.34 2226.28 4756.9 2233.03 4756.9 2240.22C4756.9 2247.41 4757.34 2254.16 4758.2 2260.48H4888.42L4879.36 2291.96H4767.25C4775.59 2312.08 4788.38 2328.18 4805.63 2340.25C4823.16 2352.04 4842.85 2357.93 4864.7 2357.93C4886.55 2357.93 4906.67 2353.48 4925.07 2344.57Z" fill="white"/>
</g>
<defs>
<filter id="filter0_i_485_224" x="2621.97" y="34.3251" width="1754.16" height="2388.28" filterUnits="userSpaceOnUse" color-interpolation-filters="sRGB">
<feFlood flood-opacity="0" result="BackgroundImageFix"/>
<feBlend mode="normal" in="SourceGraphic" in2="BackgroundImageFix" result="shape"/>
<feColorMatrix in="SourceAlpha" type="matrix" values="0 0 0 0 0 0 0 0 0 0 0 0 0 0 0 0 0 0 127 0" result="hardAlpha"/>
<feOffset dx="4" dy="4"/>
<feGaussianBlur stdDeviation="117"/>
<feComposite in2="hardAlpha" operator="arithmetic" k2="-1" k3="1"/>
<feColorMatrix type="matrix" values="0 0 0 0 0 0 0 0 0 0 0 0 0 0 0 0 0 0 0.25 0"/>
<feBlend mode="normal" in2="shape" result="effect1_innerShadow_485_224"/>
</filter>
<filter id="filter1_d_485_224" x="421" y="646.703" width="658" height="658" filterUnits="userSpaceOnUse" color-interpolation-filters="sRGB">
<feFlood flood-opacity="0" result="BackgroundImageFix"/>
<feColorMatrix in="SourceAlpha" type="matrix" values="0 0 0 0 0 0 0 0 0 0 0 0 0 0 0 0 0 0 127 0" result="hardAlpha"/>
<feOffset dy="4"/>
<feGaussianBlur stdDeviation="2"/>
<feComposite in2="hardAlpha" operator="out"/>
<feColorMatrix type="matrix" values="0 0 0 0 0 0 0 0 0 0 0 0 0 0 0 0 0 0 0.25 0"/>
<feBlend mode="normal" in2="BackgroundImageFix" result="effect1_dropShadow_485_224"/>
<feBlend mode="normal" in="SourceGraphic" in2="effect1_dropShadow_485_224" result="shape"/>
</filter>
<filter id="filter2_d_485_224" x="1336" y="2655.7" width="658" height="658" filterUnits="userSpaceOnUse" color-interpolation-filters="sRGB">
<feFlood flood-opacity="0" result="BackgroundImageFix"/>
<feColorMatrix in="SourceAlpha" type="matrix" values="0 0 0 0 0 0 0 0 0 0 0 0 0 0 0 0 0 0 127 0" result="hardAlpha"/>
<feOffset dy="4"/>
<feGaussianBlur stdDeviation="2"/>
<feComposite in2="hardAlpha" operator="out"/>
<feColorMatrix type="matrix" values="0 0 0 0 0 0 0 0 0 0 0 0 0 0 0 0 0 0 0.25 0"/>
<feBlend mode="normal" in2="BackgroundImageFix" result="effect1_dropShadow_485_224"/>
<feBlend mode="normal" in="SourceGraphic" in2="effect1_dropShadow_485_224" result="shape"/>
</filter>
<filter id="filter3_d_485_224" x="4510" y="1908.7" width="658" height="658" filterUnits="userSpaceOnUse" color-interpolation-filters="sRGB">
<feFlood flood-opacity="0" result="BackgroundImageFix"/>
<feColorMatrix in="SourceAlpha" type="matrix" values="0 0 0 0 0 0 0 0 0 0 0 0 0 0 0 0 0 0 127 0" result="hardAlpha"/>
<feOffset dy="4"/>
<feGaussianBlur stdDeviation="2"/>
<feComposite in2="hardAlpha" operator="out"/>
<feColorMatrix type="matrix" values="0 0 0 0 0 0 0 0 0 0 0 0 0 0 0 0 0 0 0.25 0"/>
<feBlend mode="normal" in2="BackgroundImageFix" result="effect1_dropShadow_485_224"/>
<feBlend mode="normal" in="SourceGraphic" in2="effect1_dropShadow_485_224" result="shape"/>
</filter>
<linearGradient id="paint0_linear_485_224" x1="2259" y1="359.203" x2="4760.5" y2="848.203" gradientUnits="userSpaceOnUse">
<stop offset="0.0208333" stop-color="#3399E9"/>
<stop offset="0.375" stop-color="#3399E9"/>
<stop offset="1" stop-color="#00F135"/>
<stop offset="1" stop-color="#33E992"/>
</linearGradient>
</defs>
</svg>
