<svg width="7565" height="1451" viewBox="0 0 7565 1451" fill="none" xmlns="http://www.w3.org/2000/svg">
<path d="M1179.65 744.808C1179.65 1006.19 967.727 1218.09 706.296 1218.09C444.864 1218.09 232.938 1006.19 232.938 744.808C232.938 483.423 444.864 271.523 706.296 271.523C967.727 271.523 1179.65 483.423 1179.65 744.808Z" stroke="#E2E2E8" stroke-width="42.0981"/>
<path d="M1391.4 744.808C1391.4 1123.12 1084.67 1429.81 706.296 1429.81C327.92 1429.81 21.1903 1123.12 21.1903 744.808C21.1903 366.494 327.92 59.8055 706.296 59.8055C1084.67 59.8055 1391.4 366.494 1391.4 744.808Z" stroke="#E2E2E8" stroke-width="42.3806"/>
<path d="M967.765 744.808C967.765 889.188 850.704 1006.24 706.296 1006.24C561.887 1006.24 444.826 889.188 444.826 744.808C444.826 600.428 561.887 483.38 706.296 483.38C850.704 483.38 967.765 600.428 967.765 744.808Z" stroke="#E2E2E8" stroke-width="42.0981"/>
<g filter="url(#filter0_i_507_252)">
<path d="M1231.01 218.626L764.838 679.064C754.878 688.901 738.213 679.817 741.084 666.116L876.305 20.8776C877.922 13.1638 885.548 8.25696 893.217 10.0751C1040.59 45.0158 1140.77 99.1126 1231.63 199.353C1236.65 204.887 1236.33 213.377 1231.01 218.626Z" fill="url(#paint0_linear_507_252)"/>
</g>
<ellipse cx="706.296" cy="744.808" rx="97.1863" ry="97.1721" fill="#E2E2E8"/>
<g filter="url(#filter1_d_507_252)">
<ellipse cx="211.889" cy="274.484" rx="91.8185" ry="91.805" fill="#64E380"/>
<path d="M235.676 305.072L238.478 314.209C232.387 317.62 225.686 319.326 218.377 319.326C208.955 319.326 200.793 316.646 193.89 311.285C187.067 305.925 182.275 298.899 179.514 290.209H167.088V281.316H177.565C177.24 278.879 177.078 277.011 177.078 275.712C177.078 274.412 177.24 272.463 177.565 269.864H167.088V261.093H179.514C182.275 252.321 187.067 245.255 193.89 239.895C200.793 234.535 208.955 231.854 218.377 231.854C225.686 231.854 232.387 233.56 238.478 236.971L235.676 246.23C230.64 243.631 224.996 242.331 218.742 242.331C212.488 242.331 206.884 244.037 201.93 247.448C197.057 250.778 193.443 255.326 191.088 261.093H231.29L228.732 269.864H188.529C188.286 271.651 188.164 273.56 188.164 275.59C188.164 277.62 188.286 279.529 188.529 281.316H225.321L222.762 290.209H191.088C193.443 295.894 197.057 300.443 201.93 303.854C206.884 307.184 212.448 308.849 218.62 308.849C224.793 308.849 230.478 307.59 235.676 305.072Z" fill="white"/>
</g>
<g filter="url(#filter2_d_507_252)">
<ellipse cx="470.394" cy="841.98" rx="91.8185" ry="91.805" fill="#64E380"/>
<path d="M494.181 872.568L496.983 881.705C490.892 885.116 484.191 886.822 476.882 886.822C467.46 886.822 459.298 884.142 452.394 878.781C445.572 873.421 440.78 866.396 438.019 857.705H425.593V848.812H436.07C435.745 846.375 435.582 844.507 435.582 843.208C435.582 841.908 435.745 839.959 436.07 837.36H425.593V828.589H438.019C440.78 819.817 445.572 812.751 452.394 807.391C459.298 802.031 467.46 799.351 476.882 799.351C484.191 799.351 490.892 801.056 496.983 804.467L494.181 813.726C489.145 811.127 483.501 809.828 477.247 809.828C470.993 809.828 465.389 811.533 460.435 814.944C455.562 818.274 451.948 822.822 449.592 828.589H489.795L487.237 837.36H447.034C446.79 839.147 446.669 841.056 446.669 843.086C446.669 845.117 446.79 847.025 447.034 848.812H483.826L481.267 857.705H449.592C451.948 863.391 455.562 867.939 460.435 871.35C465.389 874.68 470.953 876.345 477.125 876.345C483.298 876.345 488.983 875.086 494.181 872.568Z" fill="white"/>
</g>
<g filter="url(#filter3_d_507_252)">
<ellipse cx="1367.11" cy="630.97" rx="91.8185" ry="91.805" fill="#64E380"/>
<path d="M1390.89 661.558L1393.7 670.695C1387.6 674.106 1380.9 675.812 1373.59 675.812C1364.17 675.812 1356.01 673.132 1349.11 667.771C1342.29 662.411 1337.49 655.386 1334.73 646.696H1322.31V637.802H1332.78C1332.46 635.366 1332.3 633.498 1332.3 632.198C1332.3 630.899 1332.46 628.95 1332.78 626.351H1322.31V617.579H1334.73C1337.49 608.808 1342.29 601.742 1349.11 596.381C1356.01 591.021 1364.17 588.341 1373.59 588.341C1380.9 588.341 1387.6 590.046 1393.7 593.457L1390.89 602.716C1385.86 600.117 1380.21 598.818 1373.96 598.818C1367.71 598.818 1362.1 600.523 1357.15 603.935C1352.27 607.264 1348.66 611.813 1346.31 617.579H1386.51L1383.95 626.351H1343.75C1343.5 628.137 1343.38 630.046 1343.38 632.076C1343.38 634.107 1343.5 636.015 1343.75 637.802H1380.54L1377.98 646.696H1346.31C1348.66 652.381 1352.27 656.929 1357.15 660.34C1362.1 663.67 1367.67 665.335 1373.84 665.335C1380.01 665.335 1385.7 664.076 1390.89 661.558Z" fill="white"/>
</g>
<g filter="url(#filter4_d_507_252)">
<path d="M1594.32 261.29H2252.76V379.865H1721.26V688.16H2203.93V806.735H1721.26V1235H1594.32V261.29ZM2426.23 1235V523.55H2553.17V1235H2426.23ZM2558.75 236.18V372.89H2422.04V236.18H2558.75ZM3165.35 509.6C3242.54 509.6 3303.45 535.64 3348.09 587.72C3392.73 639.8 3415.05 704.9 3415.05 783.02V1235H3288.11V796.97C3288.11 683.51 3236.96 626.78 3134.66 626.78C3053.75 626.78 2977.49 671.42 2905.88 760.7V1235H2778.93V523.55H2890.53L2905.88 612.83V633.755H2908.67C2984 550.985 3069.56 509.6 3165.35 509.6ZM4406.02 1115.03V1148.51C4406.02 1178.27 4413.93 1205.24 4429.74 1229.42V1235H4298.61C4285.59 1213.61 4279.08 1188.5 4279.08 1159.67V1137.35C4279.08 1051.79 4270.24 993.2 4252.57 961.58C4244.2 944.84 4233.04 927.17 4219.09 908.57C4190.26 873.23 4140.51 855.56 4069.83 855.56H3781.06V1235H3654.12V261.29H4041.93C4168.41 261.29 4263.27 287.33 4326.51 339.41C4389.75 391.49 4421.37 459.845 4421.37 544.475C4421.37 601.205 4406.02 652.355 4375.33 697.925C4344.64 742.565 4300 775.115 4241.41 795.575V798.365C4351.15 827.195 4406.02 932.75 4406.02 1115.03ZM4033.56 735.59C4113.54 735.59 4176.78 719.78 4223.28 688.16C4270.71 656.54 4294.42 612.365 4294.42 555.635C4294.42 498.905 4273.96 455.66 4233.04 425.9C4193.05 396.14 4124.23 381.26 4026.58 381.26H3781.06V735.59H4033.56ZM4634.68 562.61C4715.59 527.27 4802.08 509.6 4894.15 509.6C4987.15 509.6 5058.3 536.57 5107.59 590.51C5156.88 644.45 5181.52 709.085 5181.52 784.415V1235H5069.92L5054.58 1145.72H5050.39C4983.43 1214.54 4897.41 1248.95 4792.32 1248.95C4729.08 1248.95 4675.14 1229.89 4630.5 1191.75C4586.79 1153.62 4564.93 1101.54 4564.93 1035.51C4564.93 969.485 4591.9 916.01 4645.84 875.09C4700.71 834.17 4780.69 813.71 4885.78 813.71H5054.58V802.55C5054.58 741.17 5039.23 696.995 5008.54 670.025C4978.78 643.055 4926.7 629.57 4852.3 629.57C4777.9 629.57 4708.15 645.38 4643.05 677H4634.68V562.61ZM5054.58 1032.72V915.545H4902.52C4762.09 915.545 4691.88 952.745 4691.88 1027.14C4691.88 1100.61 4741.17 1137.35 4839.75 1137.35C4880.67 1137.35 4920.19 1127.58 4958.32 1108.05C4996.45 1087.59 5028.54 1062.48 5054.58 1032.72ZM5453.11 610.04C5521 543.08 5600.05 509.6 5690.26 509.6C5780.47 509.6 5858.59 544.01 5924.62 612.83H5928.81V216.65H6055.75V1235H5944.15L5928.81 1145.72H5924.62C5858.59 1214.54 5780.47 1248.95 5690.26 1248.95C5600.05 1248.95 5521 1215.47 5453.11 1148.51C5386.15 1081.55 5352.67 991.805 5352.67 879.275C5352.67 766.745 5386.15 677 5453.11 610.04ZM5708.4 1130.37C5792.1 1130.37 5865.57 1095.5 5928.81 1025.75V732.8C5865.57 663.05 5792.1 628.175 5708.4 628.175C5639.58 628.175 5584.24 650.03 5542.39 693.74C5500.54 737.45 5479.62 799.295 5479.62 879.275C5479.62 959.255 5500.54 1021.1 5542.39 1064.81C5584.24 1108.52 5639.58 1130.37 5708.4 1130.37ZM6288.52 562.61C6369.43 527.27 6455.92 509.6 6547.99 509.6C6640.99 509.6 6712.14 536.57 6761.43 590.51C6810.72 644.45 6835.36 709.085 6835.36 784.415V1235H6723.76L6708.42 1145.72H6704.23C6637.27 1214.54 6551.25 1248.95 6446.16 1248.95C6382.92 1248.95 6328.98 1229.89 6284.34 1191.75C6240.63 1153.62 6218.77 1101.54 6218.77 1035.51C6218.77 969.485 6245.74 916.01 6299.68 875.09C6354.55 834.17 6434.53 813.71 6539.62 813.71H6708.42V802.55C6708.42 741.17 6693.07 696.995 6662.38 670.025C6632.62 643.055 6580.54 629.57 6506.14 629.57C6431.74 629.57 6361.99 645.38 6296.89 677H6288.52V562.61ZM6708.42 1032.72V915.545H6556.36C6415.93 915.545 6345.72 952.745 6345.72 1027.14C6345.72 1100.61 6395.01 1137.35 6493.59 1137.35C6534.51 1137.35 6574.03 1127.58 6612.16 1108.05C6650.29 1087.59 6682.38 1062.48 6708.42 1032.72ZM7441.75 509.6H7452.91V630.965H7441.75C7386.88 630.965 7335.73 641.66 7288.3 663.05C7240.87 684.44 7203.67 714.2 7176.7 752.33V1235H7049.76V523.55H7161.36L7176.7 612.83V633.755H7179.49C7246.45 550.985 7333.87 509.6 7441.75 509.6Z" fill="url(#paint1_linear_507_252)" shape-rendering="crispEdges"/>
<path d="M1594.32 261.29V258.79H1591.82V261.29H1594.32ZM2252.76 261.29H2255.26V258.79H2252.76V261.29ZM2252.76 379.865V382.365H2255.26V379.865H2252.76ZM1721.26 379.865V377.365H1718.76V379.865H1721.26ZM1721.26 688.16H1718.76V690.66H1721.26V688.16ZM2203.93 688.16H2206.43V685.66H2203.93V688.16ZM2203.93 806.735V809.235H2206.43V806.735H2203.93ZM1721.26 806.735V804.235H1718.76V806.735H1721.26ZM1721.26 1235V1237.5H1723.76V1235H1721.26ZM1594.32 1235H1591.82V1237.5H1594.32V1235ZM1594.32 263.79H2252.76V258.79H1594.32V263.79ZM2250.26 261.29V379.865H2255.26V261.29H2250.26ZM2252.76 377.365H1721.26V382.365H2252.76V377.365ZM1718.76 379.865V688.16H1723.76V379.865H1718.76ZM1721.26 690.66H2203.93V685.66H1721.26V690.66ZM2201.43 688.16V806.735H2206.43V688.16H2201.43ZM2203.93 804.235H1721.26V809.235H2203.93V804.235ZM1718.76 806.735V1235H1723.76V806.735H1718.76ZM1721.26 1232.5H1594.32V1237.5H1721.26V1232.5ZM1596.82 1235V261.29H1591.82V1235H1596.82ZM2426.23 1235H2423.73V1237.5H2426.23V1235ZM2426.23 523.55V521.05H2423.73V523.55H2426.23ZM2553.17 523.55H2555.67V521.05H2553.17V523.55ZM2553.17 1235V1237.5H2555.67V1235H2553.17ZM2558.75 236.18H2561.25V233.68H2558.75V236.18ZM2558.75 372.89V375.39H2561.25V372.89H2558.75ZM2422.04 372.89H2419.54V375.39H2422.04V372.89ZM2422.04 236.18V233.68H2419.54V236.18H2422.04ZM2428.73 1235V523.55H2423.73V1235H2428.73ZM2426.23 526.05H2553.17V521.05H2426.23V526.05ZM2550.67 523.55V1235H2555.67V523.55H2550.67ZM2553.17 1232.5H2426.23V1237.5H2553.17V1232.5ZM2556.25 236.18V372.89H2561.25V236.18H2556.25ZM2558.75 370.39H2422.04V375.39H2558.75V370.39ZM2424.54 372.89V236.18H2419.54V372.89H2424.54ZM2422.04 238.68H2558.75V233.68H2422.04V238.68ZM3348.09 587.72L3346.19 589.347L3346.19 589.347L3348.09 587.72ZM3415.05 1235V1237.5H3417.55V1235H3415.05ZM3288.11 1235H3285.61V1237.5H3288.11V1235ZM2905.88 760.7L2903.93 759.136L2903.38 759.821V760.7H2905.88ZM2905.88 1235V1237.5H2908.38V1235H2905.88ZM2778.93 1235H2776.43V1237.5H2778.93V1235ZM2778.93 523.55V521.05H2776.43V523.55H2778.93ZM2890.53 523.55L2893 523.126L2892.64 521.05H2890.53V523.55ZM2905.88 612.83H2908.38V612.617L2908.34 612.407L2905.88 612.83ZM2905.88 633.755H2903.38V636.255H2905.88V633.755ZM2908.67 633.755V636.255H2909.77L2910.52 635.438L2908.67 633.755ZM3165.35 512.1C3241.91 512.1 3302.09 537.894 3346.19 589.347L3349.99 586.093C3304.81 533.386 3243.16 507.1 3165.35 507.1V512.1ZM3346.19 589.347C3390.39 640.911 3412.55 705.409 3412.55 783.02H3417.55C3417.55 704.391 3395.07 638.689 3349.99 586.093L3346.19 589.347ZM3412.55 783.02V1235H3417.55V783.02H3412.55ZM3415.05 1232.5H3288.11V1237.5H3415.05V1232.5ZM3290.61 1235V796.97H3285.61V1235H3290.61ZM3290.61 796.97C3290.61 739.915 3277.75 696.657 3251.6 667.653C3225.41 638.601 3186.26 624.28 3134.66 624.28V629.28C3185.35 629.28 3222.93 643.324 3247.89 671.002C3272.89 698.728 3285.61 740.565 3285.61 796.97H3290.61ZM3134.66 624.28C3052.71 624.28 2975.8 669.521 2903.93 759.136L2907.83 762.264C2979.17 673.319 3054.78 629.28 3134.66 629.28V624.28ZM2903.38 760.7V1235H2908.38V760.7H2903.38ZM2905.88 1232.5H2778.93V1237.5H2905.88V1232.5ZM2781.43 1235V523.55H2776.43V1235H2781.43ZM2778.93 526.05H2890.53V521.05H2778.93V526.05ZM2888.07 523.973L2903.41 613.253L2908.34 612.407L2893 523.126L2888.07 523.973ZM2903.38 612.83V633.755H2908.38V612.83H2903.38ZM2905.88 636.255H2908.67V631.255H2905.88V636.255ZM2910.52 635.438C2985.46 553.092 3070.38 512.1 3165.35 512.1V507.1C3068.73 507.1 2982.53 548.878 2906.82 632.072L2910.52 635.438ZM4429.74 1229.42H4432.24V1228.68L4431.83 1228.05L4429.74 1229.42ZM4429.74 1235V1237.5H4432.24V1235H4429.74ZM4298.61 1235L4296.47 1236.3L4297.2 1237.5H4298.61V1235ZM4252.57 961.58L4250.34 962.698L4250.36 962.749L4250.39 962.8L4252.57 961.58ZM4219.09 908.57L4221.09 907.07L4221.06 907.029L4221.03 906.99L4219.09 908.57ZM3781.06 855.56V853.06H3778.56V855.56H3781.06ZM3781.06 1235V1237.5H3783.56V1235H3781.06ZM3654.12 1235H3651.62V1237.5H3654.12V1235ZM3654.12 261.29V258.79H3651.62V261.29H3654.12ZM4326.51 339.41L4328.1 337.48L4328.1 337.48L4326.51 339.41ZM4375.33 697.925L4377.39 699.341L4377.4 699.331L4377.41 699.321L4375.33 697.925ZM4241.41 795.575L4240.59 793.215L4238.91 793.8V795.575H4241.41ZM4241.41 798.365H4238.91V800.293L4240.78 800.783L4241.41 798.365ZM4223.28 688.16L4221.89 686.08L4221.88 686.086L4221.87 686.093L4223.28 688.16ZM4233.04 425.9L4231.55 427.906L4231.56 427.914L4231.57 427.922L4233.04 425.9ZM3781.06 381.26V378.76H3778.56V381.26H3781.06ZM3781.06 735.59H3778.56V738.09H3781.06V735.59ZM4403.52 1115.03V1148.51H4408.52V1115.03H4403.52ZM4403.52 1148.51C4403.52 1178.74 4411.56 1206.19 4427.65 1230.79L4431.83 1228.05C4416.3 1204.29 4408.52 1177.8 4408.52 1148.51H4403.52ZM4427.24 1229.42V1235H4432.24V1229.42H4427.24ZM4429.74 1232.5H4298.61V1237.5H4429.74V1232.5ZM4300.75 1233.7C4288 1212.76 4281.58 1188.11 4281.58 1159.67H4276.58C4276.58 1188.89 4283.18 1214.46 4296.47 1236.3L4300.75 1233.7ZM4281.58 1159.67V1137.35H4276.58V1159.67H4281.58ZM4281.58 1137.35C4281.58 1094.49 4279.37 1058.32 4274.93 1028.86C4270.49 999.437 4263.8 976.547 4254.76 960.36L4250.39 962.8C4259.02 978.233 4265.58 1000.45 4269.98 1029.61C4274.37 1058.74 4276.58 1094.65 4276.58 1137.35H4281.58ZM4254.81 960.462C4246.36 943.56 4235.11 925.762 4221.09 907.07L4217.09 910.07C4230.98 928.577 4242.05 946.12 4250.34 962.698L4254.81 960.462ZM4221.03 906.99C4191.52 870.808 4140.84 853.06 4069.83 853.06V858.06C4140.17 858.06 4189.01 875.652 4217.16 910.15L4221.03 906.99ZM4069.83 853.06H3781.06V858.06H4069.83V853.06ZM3778.56 855.56V1235H3783.56V855.56H3778.56ZM3781.06 1232.5H3654.12V1237.5H3781.06V1232.5ZM3656.62 1235V261.29H3651.62V1235H3656.62ZM3654.12 263.79H4041.93V258.79H3654.12V263.79ZM4041.93 263.79C4168.13 263.79 4262.31 289.782 4324.92 341.34L4328.1 337.48C4264.22 284.878 4168.69 258.79 4041.93 258.79V263.79ZM4324.92 341.34C4387.56 392.927 4418.87 460.564 4418.87 544.475H4423.87C4423.87 459.126 4391.94 390.053 4328.1 337.48L4324.92 341.34ZM4418.87 544.475C4418.87 600.725 4403.66 651.385 4373.26 696.528L4377.41 699.321C4408.39 653.325 4423.87 601.685 4423.87 544.475H4418.87ZM4373.27 696.509C4342.93 740.649 4298.75 772.903 4240.59 793.215L4242.24 797.935C4301.25 777.327 4346.36 744.481 4377.39 699.341L4373.27 696.509ZM4238.91 795.575V798.365H4243.91V795.575H4238.91ZM4240.78 800.783C4294.93 815.009 4335.53 848.121 4362.65 900.307C4389.83 952.588 4403.52 1024.1 4403.52 1115.03H4408.52C4408.52 1023.68 4394.78 951.274 4367.09 898.001C4339.35 844.631 4297.64 810.551 4242.05 795.947L4240.78 800.783ZM4033.56 738.09C4113.84 738.09 4177.63 722.225 4224.69 690.227L4221.87 686.093C4175.93 717.335 4113.24 733.09 4033.56 733.09V738.09ZM4224.67 690.24C4272.79 658.159 4296.92 613.206 4296.92 555.635H4291.92C4291.92 611.524 4268.63 654.921 4221.89 686.08L4224.67 690.24ZM4296.92 555.635C4296.92 498.217 4276.17 454.171 4234.52 423.878L4231.57 427.922C4271.76 457.149 4291.92 499.593 4291.92 555.635H4296.92ZM4234.54 423.894C4193.86 393.626 4124.34 378.76 4026.58 378.76V383.76C4124.13 383.76 4192.25 398.654 4231.55 427.906L4234.54 423.894ZM4026.58 378.76H3781.06V383.76H4026.58V378.76ZM3778.56 381.26V735.59H3783.56V381.26H3778.56ZM3781.06 738.09H4033.56V733.09H3781.06V738.09ZM4634.68 562.61L4633.68 560.319L4632.18 560.974V562.61H4634.68ZM5107.59 590.51L5105.74 592.196L5105.74 592.196L5107.59 590.51ZM5181.52 1235V1237.5H5184.02V1235H5181.52ZM5069.92 1235L5067.46 1235.42L5067.82 1237.5H5069.92V1235ZM5054.58 1145.72L5057.04 1145.3L5056.69 1143.22H5054.58V1145.72ZM5050.39 1145.72V1143.22H5049.34L5048.6 1143.98L5050.39 1145.72ZM4630.5 1191.75L4628.86 1193.64L4628.87 1193.65L4628.88 1193.66L4630.5 1191.75ZM4645.84 875.09L4644.35 873.086L4644.34 873.092L4644.33 873.098L4645.84 875.09ZM5054.58 813.71V816.21H5057.08V813.71H5054.58ZM5008.54 670.025L5006.87 671.877L5006.88 671.89L5006.89 671.903L5008.54 670.025ZM4643.05 677V679.5H4643.63L4644.15 679.249L4643.05 677ZM4634.68 677H4632.18V679.5H4634.68V677ZM5054.58 1032.72L5056.46 1034.37L5057.08 1033.66V1032.72H5054.58ZM5054.58 915.545H5057.08V913.045H5054.58V915.545ZM4958.32 1108.05L4959.46 1110.28L4959.49 1110.27L4959.51 1110.26L4958.32 1108.05ZM4635.69 564.901C4716.27 529.705 4802.41 512.1 4894.15 512.1V507.1C4801.76 507.1 4714.92 524.835 4633.68 560.319L4635.69 564.901ZM4894.15 512.1C4986.66 512.1 5057.05 538.908 5105.74 592.196L5109.44 588.824C5059.55 534.232 4987.65 507.1 4894.15 507.1V512.1ZM5105.74 592.196C5154.6 645.66 5179.02 709.688 5179.02 784.415H5184.02C5184.02 708.482 5159.16 643.24 5109.44 588.824L5105.74 592.196ZM5179.02 784.415V1235H5184.02V784.415H5179.02ZM5181.52 1232.5H5069.92V1237.5H5181.52V1232.5ZM5072.39 1234.58L5057.04 1145.3L5052.12 1146.14L5067.46 1235.42L5072.39 1234.58ZM5054.58 1143.22H5050.39V1148.22H5054.58V1143.22ZM5048.6 1143.98C4982.16 1212.26 4896.81 1246.45 4792.32 1246.45V1251.45C4898.01 1251.45 4984.71 1216.82 5052.19 1147.46L5048.6 1143.98ZM4792.32 1246.45C4729.63 1246.45 4676.27 1227.57 4632.12 1189.85L4628.88 1193.66C4674.01 1232.2 4728.53 1251.45 4792.32 1251.45V1246.45ZM4632.14 1189.87C4589.06 1152.28 4567.43 1100.93 4567.43 1035.51H4562.43C4562.43 1102.16 4584.52 1154.97 4628.86 1193.64L4632.14 1189.87ZM4567.43 1035.51C4567.43 970.29 4594.02 917.543 4647.36 877.082L4644.33 873.098C4589.79 914.477 4562.43 968.68 4562.43 1035.51H4567.43ZM4647.34 877.094C4701.6 836.627 4780.96 816.21 4885.78 816.21V811.21C4780.43 811.21 4699.83 831.713 4644.35 873.086L4647.34 877.094ZM4885.78 816.21H5054.58V811.21H4885.78V816.21ZM5057.08 813.71V802.55H5052.08V813.71H5057.08ZM5057.08 802.55C5057.08 740.815 5041.65 695.788 5010.2 668.147L5006.89 671.903C5036.82 698.202 5052.08 741.525 5052.08 802.55H5057.08ZM5010.22 668.172C4979.75 640.552 4926.86 627.07 4852.3 627.07V632.07C4926.55 632.07 4977.82 645.558 5006.87 671.877L5010.22 668.172ZM4852.3 627.07C4777.54 627.07 4707.41 642.961 4641.96 674.751L4644.15 679.249C4708.9 647.799 4778.27 632.07 4852.3 632.07V627.07ZM4643.05 674.5H4634.68V679.5H4643.05V674.5ZM4637.18 677V562.61H4632.18V677H4637.18ZM5057.08 1032.72V915.545H5052.08V1032.72H5057.08ZM5054.58 913.045H4902.52V918.045H5054.58V913.045ZM4902.52 913.045C4832.17 913.045 4779.02 922.35 4743.37 941.236C4725.51 950.699 4711.98 962.599 4702.93 976.989C4693.87 991.387 4689.38 1008.14 4689.38 1027.14H4694.38C4694.38 1008.95 4698.67 993.153 4707.16 979.651C4715.66 966.141 4728.46 954.791 4745.71 945.654C4780.28 927.34 4832.45 918.045 4902.52 918.045V913.045ZM4689.38 1027.14C4689.38 1064.5 4701.95 1092.87 4727.35 1111.8C4752.62 1130.63 4790.22 1139.85 4839.75 1139.85V1134.85C4790.7 1134.85 4754.36 1125.7 4730.34 1107.79C4706.46 1089.99 4694.38 1063.26 4694.38 1027.14H4689.38ZM4839.75 1139.85C4881.08 1139.85 4921 1129.98 4959.46 1110.28L4957.19 1105.83C4919.39 1125.19 4880.25 1134.85 4839.75 1134.85V1139.85ZM4959.51 1110.26C4997.88 1089.67 5030.21 1064.38 5056.46 1034.37L5052.7 1031.08C5026.87 1060.59 4995.03 1085.52 4957.14 1105.85L4959.51 1110.26ZM5453.11 610.04L5451.36 608.26L5451.35 608.266L5451.35 608.272L5453.11 610.04ZM5924.62 612.83L5922.82 614.561L5923.56 615.33H5924.62V612.83ZM5928.81 612.83V615.33H5931.31V612.83H5928.81ZM5928.81 216.65V214.15H5926.31V216.65H5928.81ZM6055.75 216.65H6058.25V214.15H6055.75V216.65ZM6055.75 1235V1237.5H6058.25V1235H6055.75ZM5944.15 1235L5941.69 1235.42L5942.05 1237.5H5944.15V1235ZM5928.81 1145.72L5931.27 1145.3L5930.92 1143.22H5928.81V1145.72ZM5924.62 1145.72V1143.22H5923.56L5922.82 1143.99L5924.62 1145.72ZM5453.11 1148.51L5451.35 1150.28L5451.35 1150.28L5451.36 1150.29L5453.11 1148.51ZM5928.81 1025.75L5930.66 1027.43L5931.31 1026.71V1025.75H5928.81ZM5928.81 732.8H5931.31V731.835L5930.66 731.121L5928.81 732.8ZM5542.39 693.74L5544.2 695.469L5544.2 695.469L5542.39 693.74ZM5454.87 611.82C5522.32 545.292 5600.75 512.1 5690.26 512.1V507.1C5599.36 507.1 5519.69 540.868 5451.36 608.26L5454.87 611.82ZM5690.26 512.1C5779.75 512.1 5857.23 546.201 5922.82 614.561L5926.43 611.099C5859.96 541.819 5781.2 507.1 5690.26 507.1V512.1ZM5924.62 615.33H5928.81V610.33H5924.62V615.33ZM5931.31 612.83V216.65H5926.31V612.83H5931.31ZM5928.81 219.15H6055.75V214.15H5928.81V219.15ZM6053.25 216.65V1235H6058.25V216.65H6053.25ZM6055.75 1232.5H5944.15V1237.5H6055.75V1232.5ZM5946.62 1234.58L5931.27 1145.3L5926.35 1146.14L5941.69 1235.42L5946.62 1234.58ZM5928.81 1143.22H5924.62V1148.22H5928.81V1143.22ZM5922.82 1143.99C5857.23 1212.35 5779.75 1246.45 5690.26 1246.45V1251.45C5781.2 1251.45 5859.96 1216.73 5926.43 1147.45L5922.82 1143.99ZM5690.26 1246.45C5600.75 1246.45 5522.32 1213.26 5454.87 1146.73L5451.36 1150.29C5519.69 1217.68 5599.36 1251.45 5690.26 1251.45V1246.45ZM5454.88 1146.74C5388.48 1080.34 5355.17 991.276 5355.17 879.275H5350.17C5350.17 992.334 5383.83 1082.76 5451.35 1150.28L5454.88 1146.74ZM5355.17 879.275C5355.17 767.274 5388.48 678.212 5454.88 611.808L5451.35 608.272C5383.83 675.788 5350.17 766.216 5350.17 879.275H5355.17ZM5708.4 1132.87C5792.9 1132.87 5867.01 1097.63 5930.66 1027.43L5926.96 1024.07C5864.13 1093.37 5791.3 1127.87 5708.4 1127.87V1132.87ZM5931.31 1025.75V732.8H5926.31V1025.75H5931.31ZM5930.66 731.121C5867.01 660.92 5792.9 625.675 5708.4 625.675V630.675C5791.3 630.675 5864.13 665.179 5926.96 734.479L5930.66 731.121ZM5708.4 625.675C5639 625.675 5582.98 647.739 5540.59 692.011L5544.2 695.469C5585.51 652.321 5640.16 630.675 5708.4 630.675V625.675ZM5540.59 692.011C5498.16 736.321 5477.12 798.864 5477.12 879.275H5482.12C5482.12 799.726 5502.92 738.579 5544.2 695.469L5540.59 692.011ZM5477.12 879.275C5477.12 959.686 5498.16 1022.23 5540.59 1066.54L5544.2 1063.08C5502.92 1019.97 5482.12 958.824 5482.12 879.275H5477.12ZM5540.59 1066.54C5582.98 1110.81 5639 1132.87 5708.4 1132.87V1127.87C5640.16 1127.87 5585.51 1106.23 5544.2 1063.08L5540.59 1066.54ZM6288.52 562.61L6287.52 560.319L6286.02 560.974V562.61H6288.52ZM6761.43 590.51L6759.58 592.196L6759.58 592.196L6761.43 590.51ZM6835.36 1235V1237.5H6837.86V1235H6835.36ZM6723.76 1235L6721.3 1235.42L6721.66 1237.5H6723.76V1235ZM6708.42 1145.72L6710.88 1145.3L6710.52 1143.22H6708.42V1145.72ZM6704.23 1145.72V1143.22H6703.18L6702.44 1143.98L6704.23 1145.72ZM6284.34 1191.75L6282.69 1193.64L6282.7 1193.65L6282.71 1193.66L6284.34 1191.75ZM6299.68 875.09L6298.19 873.086L6298.18 873.092L6298.17 873.098L6299.68 875.09ZM6708.42 813.71V816.21H6710.92V813.71H6708.42ZM6662.38 670.025L6660.7 671.877L6660.72 671.89L6660.73 671.903L6662.38 670.025ZM6296.89 677V679.5H6297.47L6297.98 679.249L6296.89 677ZM6288.52 677H6286.02V679.5H6288.52V677ZM6708.42 1032.72L6710.3 1034.37L6710.92 1033.66V1032.72H6708.42ZM6708.42 915.545H6710.92V913.045H6708.42V915.545ZM6612.16 1108.05L6613.3 1110.28L6613.32 1110.27L6613.34 1110.26L6612.16 1108.05ZM6289.52 564.901C6370.1 529.705 6456.25 512.1 6547.99 512.1V507.1C6455.59 507.1 6368.76 524.835 6287.52 560.319L6289.52 564.901ZM6547.99 512.1C6640.49 512.1 6710.89 538.908 6759.58 592.196L6763.27 588.824C6713.39 534.232 6641.49 507.1 6547.99 507.1V512.1ZM6759.58 592.196C6808.44 645.66 6832.86 709.688 6832.86 784.415H6837.86C6837.86 708.482 6813 643.24 6763.27 588.824L6759.58 592.196ZM6832.86 784.415V1235H6837.86V784.415H6832.86ZM6835.36 1232.5H6723.76V1237.5H6835.36V1232.5ZM6726.23 1234.58L6710.88 1145.3L6705.95 1146.14L6721.3 1235.42L6726.23 1234.58ZM6708.42 1143.22H6704.23V1148.22H6708.42V1143.22ZM6702.44 1143.98C6636 1212.26 6550.64 1246.45 6446.16 1246.45V1251.45C6551.85 1251.45 6638.55 1216.82 6706.02 1147.46L6702.44 1143.98ZM6446.16 1246.45C6383.46 1246.45 6330.11 1227.57 6285.96 1189.85L6282.71 1193.66C6327.84 1232.2 6382.37 1251.45 6446.16 1251.45V1246.45ZM6285.98 1189.87C6242.89 1152.28 6221.27 1100.93 6221.27 1035.51H6216.27C6216.27 1102.16 6238.36 1154.97 6282.69 1193.64L6285.98 1189.87ZM6221.27 1035.51C6221.27 970.29 6247.86 917.543 6301.19 877.082L6298.17 873.098C6243.63 914.477 6216.27 968.68 6216.27 1035.51H6221.27ZM6301.18 877.094C6355.44 836.627 6434.8 816.21 6539.62 816.21V811.21C6434.27 811.21 6353.67 831.713 6298.19 873.086L6301.18 877.094ZM6539.62 816.21H6708.42V811.21H6539.62V816.21ZM6710.92 813.71V802.55H6705.92V813.71H6710.92ZM6710.92 802.55C6710.92 740.815 6695.49 695.788 6664.03 668.147L6660.73 671.903C6690.66 698.202 6705.92 741.525 6705.92 802.55H6710.92ZM6664.06 668.172C6633.58 640.552 6580.69 627.07 6506.14 627.07V632.07C6580.39 632.07 6631.66 645.558 6660.7 671.877L6664.06 668.172ZM6506.14 627.07C6431.38 627.07 6361.25 642.961 6295.8 674.751L6297.98 679.249C6362.73 647.799 6432.11 632.07 6506.14 632.07V627.07ZM6296.89 674.5H6288.52V679.5H6296.89V674.5ZM6291.02 677V562.61H6286.02V677H6291.02ZM6710.92 1032.72V915.545H6705.92V1032.72H6710.92ZM6708.42 913.045H6556.36V918.045H6708.42V913.045ZM6556.36 913.045C6486.01 913.045 6432.86 922.35 6397.21 941.236C6379.35 950.699 6365.82 962.599 6356.77 976.989C6347.71 991.387 6343.22 1008.14 6343.22 1027.14H6348.22C6348.22 1008.95 6352.5 993.153 6361 979.651C6369.5 966.141 6382.3 954.791 6399.55 945.654C6434.12 927.34 6486.29 918.045 6556.36 918.045V913.045ZM6343.22 1027.14C6343.22 1064.5 6355.79 1092.87 6381.19 1111.8C6406.46 1130.63 6444.06 1139.85 6493.59 1139.85V1134.85C6444.54 1134.85 6408.2 1125.7 6384.18 1107.79C6360.29 1089.99 6348.22 1063.26 6348.22 1027.14H6343.22ZM6493.59 1139.85C6534.92 1139.85 6574.84 1129.98 6613.3 1110.28L6611.02 1105.83C6573.23 1125.19 6534.09 1134.85 6493.59 1134.85V1139.85ZM6613.34 1110.26C6651.71 1089.67 6684.04 1064.38 6710.3 1034.37L6706.54 1031.08C6680.71 1060.59 6648.87 1085.52 6610.98 1105.85L6613.34 1110.26ZM7452.91 509.6H7455.41V507.1H7452.91V509.6ZM7452.91 630.965V633.465H7455.41V630.965H7452.91ZM7288.3 663.05L7287.27 660.771L7287.27 660.771L7288.3 663.05ZM7176.7 752.33L7174.66 750.886L7174.2 751.535V752.33H7176.7ZM7176.7 1235V1237.5H7179.2V1235H7176.7ZM7049.76 1235H7047.26V1237.5H7049.76V1235ZM7049.76 523.55V521.05H7047.26V523.55H7049.76ZM7161.36 523.55L7163.82 523.126L7163.46 521.05H7161.36V523.55ZM7176.7 612.83H7179.2V612.617L7179.17 612.407L7176.7 612.83ZM7176.7 633.755H7174.2V636.255H7176.7V633.755ZM7179.49 633.755V636.255H7180.68L7181.44 635.327L7179.49 633.755ZM7441.75 512.1H7452.91V507.1H7441.75V512.1ZM7450.41 509.6V630.965H7455.41V509.6H7450.41ZM7452.91 628.465H7441.75V633.465H7452.91V628.465ZM7441.75 628.465C7386.55 628.465 7335.04 639.227 7287.27 660.771L7289.33 665.329C7336.42 644.093 7387.22 633.465 7441.75 633.465V628.465ZM7287.27 660.771C7239.49 682.323 7201.92 712.352 7174.66 750.886L7178.74 753.774C7205.43 716.048 7242.26 686.557 7289.33 665.329L7287.27 660.771ZM7174.2 752.33V1235H7179.2V752.33H7174.2ZM7176.7 1232.5H7049.76V1237.5H7176.7V1232.5ZM7052.26 1235V523.55H7047.26V1235H7052.26ZM7049.76 526.05H7161.36V521.05H7049.76V526.05ZM7158.89 523.973L7174.24 613.253L7179.17 612.407L7163.82 523.126L7158.89 523.973ZM7174.2 612.83V633.755H7179.2V612.83H7174.2ZM7176.7 636.255H7179.49V631.255H7176.7V636.255ZM7181.44 635.327C7247.91 553.153 7334.61 512.1 7441.75 512.1V507.1C7333.13 507.1 7244.99 548.817 7177.55 632.183L7181.44 635.327Z" fill="url(#paint2_linear_507_252)"/>
</g>
<defs>
<filter id="filter0_i_507_252" x="740.757" y="9.69629" width="495.579" height="674.631" filterUnits="userSpaceOnUse" color-interpolation-filters="sRGB">
<feFlood flood-opacity="0" result="BackgroundImageFix"/>
<feBlend mode="normal" in="SourceGraphic" in2="BackgroundImageFix" result="shape"/>
<feColorMatrix in="SourceAlpha" type="matrix" values="0 0 0 0 0 0 0 0 0 0 0 0 0 0 0 0 0 0 127 0" result="hardAlpha"/>
<feOffset dx="1.13015" dy="1.13015"/>
<feGaussianBlur stdDeviation="33.0569"/>
<feComposite in2="hardAlpha" operator="arithmetic" k2="-1" k3="1"/>
<feColorMatrix type="matrix" values="0 0 0 0 0 0 0 0 0 0 0 0 0 0 0 0 0 0 0.25 0"/>
<feBlend mode="normal" in2="shape" result="effect1_innerShadow_507_252"/>
</filter>
<filter id="filter1_d_507_252" x="118.94" y="182.679" width="185.897" height="185.871" filterUnits="userSpaceOnUse" color-interpolation-filters="sRGB">
<feFlood flood-opacity="0" result="BackgroundImageFix"/>
<feColorMatrix in="SourceAlpha" type="matrix" values="0 0 0 0 0 0 0 0 0 0 0 0 0 0 0 0 0 0 127 0" result="hardAlpha"/>
<feOffset dy="1.13015"/>
<feGaussianBlur stdDeviation="0.565075"/>
<feComposite in2="hardAlpha" operator="out"/>
<feColorMatrix type="matrix" values="0 0 0 0 0 0 0 0 0 0 0 0 0 0 0 0 0 0 0.25 0"/>
<feBlend mode="normal" in2="BackgroundImageFix" result="effect1_dropShadow_507_252"/>
<feBlend mode="normal" in="SourceGraphic" in2="effect1_dropShadow_507_252" result="shape"/>
</filter>
<filter id="filter2_d_507_252" x="377.445" y="750.175" width="185.897" height="185.871" filterUnits="userSpaceOnUse" color-interpolation-filters="sRGB">
<feFlood flood-opacity="0" result="BackgroundImageFix"/>
<feColorMatrix in="SourceAlpha" type="matrix" values="0 0 0 0 0 0 0 0 0 0 0 0 0 0 0 0 0 0 127 0" result="hardAlpha"/>
<feOffset dy="1.13015"/>
<feGaussianBlur stdDeviation="0.565075"/>
<feComposite in2="hardAlpha" operator="out"/>
<feColorMatrix type="matrix" values="0 0 0 0 0 0 0 0 0 0 0 0 0 0 0 0 0 0 0.25 0"/>
<feBlend mode="normal" in2="BackgroundImageFix" result="effect1_dropShadow_507_252"/>
<feBlend mode="normal" in="SourceGraphic" in2="effect1_dropShadow_507_252" result="shape"/>
</filter>
<filter id="filter3_d_507_252" x="1274.16" y="539.165" width="185.897" height="185.871" filterUnits="userSpaceOnUse" color-interpolation-filters="sRGB">
<feFlood flood-opacity="0" result="BackgroundImageFix"/>
<feColorMatrix in="SourceAlpha" type="matrix" values="0 0 0 0 0 0 0 0 0 0 0 0 0 0 0 0 0 0 127 0" result="hardAlpha"/>
<feOffset dy="1.13015"/>
<feGaussianBlur stdDeviation="0.565075"/>
<feComposite in2="hardAlpha" operator="out"/>
<feColorMatrix type="matrix" values="0 0 0 0 0 0 0 0 0 0 0 0 0 0 0 0 0 0 0.25 0"/>
<feBlend mode="normal" in2="BackgroundImageFix" result="effect1_dropShadow_507_252"/>
<feBlend mode="normal" in="SourceGraphic" in2="effect1_dropShadow_507_252" result="shape"/>
</filter>
<filter id="filter4_d_507_252" x="1590.32" y="216.65" width="5866.6" height="1040.3" filterUnits="userSpaceOnUse" color-interpolation-filters="sRGB">
<feFlood flood-opacity="0" result="BackgroundImageFix"/>
<feColorMatrix in="SourceAlpha" type="matrix" values="0 0 0 0 0 0 0 0 0 0 0 0 0 0 0 0 0 0 127 0" result="hardAlpha"/>
<feOffset dy="4"/>
<feGaussianBlur stdDeviation="2"/>
<feComposite in2="hardAlpha" operator="out"/>
<feColorMatrix type="matrix" values="0 0 0 0 0 0 0 0 0 0 0 0 0 0 0 0 0 0 0.25 0"/>
<feBlend mode="normal" in2="BackgroundImageFix" result="effect1_dropShadow_507_252"/>
<feBlend mode="normal" in="SourceGraphic" in2="effect1_dropShadow_507_252" result="shape"/>
</filter>
<linearGradient id="paint0_linear_507_252" x1="638.209" y1="101.467" x2="1344.92" y2="239.637" gradientUnits="userSpaceOnUse">
<stop offset="0.375" stop-color="#3399E9"/>
<stop offset="1" stop-color="#00F135"/>
<stop offset="1" stop-color="#33E992"/>
</linearGradient>
<linearGradient id="paint1_linear_507_252" x1="1720.08" y1="-2508.5" x2="8378.53" y2="1135.61" gradientUnits="userSpaceOnUse">
<stop stop-color="#3397E9"/>
<stop offset="0.494792" stop-color="#33E992"/>
</linearGradient>
<linearGradient id="paint2_linear_507_252" x1="6896.47" y1="-300.499" x2="1239" y2="581.689" gradientUnits="userSpaceOnUse">
<stop stop-color="#3397E9" stop-opacity="0.7"/>
<stop offset="1" stop-color="#33E994" stop-opacity="0.7"/>
</linearGradient>
</defs>
</svg>
