<svg width="500" height="500" viewBox="0 0 500 500" fill="none" xmlns="http://www.w3.org/2000/svg">
<circle cx="250" cy="250" r="250" fill="#64E380"/>
<path d="M223.6 321C215.2 321 207.867 320 201.6 318C195.333 315.867 190.067 313.067 185.8 309.6C181.533 306.133 178.267 302.333 176 298.2C173.867 294.067 172.733 289.8 172.6 285.4C172.6 284.2 173 283.267 173.8 282.6C174.6 281.933 175.6 281.6 176.8 281.6H186.6C187.8 281.6 188.867 281.867 189.8 282.4C190.733 282.933 191.533 284.067 192.2 285.8C193.533 290.6 195.8 294.333 199 297C202.333 299.667 206.133 301.533 210.4 302.6C214.8 303.533 219.2 304 223.6 304C232.8 304 240.267 301.8 246 297.4C251.733 293 254.6 286.533 254.6 278C254.6 269.333 252 263.133 246.8 259.4C241.6 255.667 234.4 253.8 225.2 253.8H206.2C204.867 253.8 203.733 253.4 202.8 252.6C202 251.8 201.6 250.667 201.6 249.2V243.8C201.6 242.6 201.8 241.6 202.2 240.8C202.733 239.867 203.267 239.067 203.8 238.4L242.6 196H183.6C182.267 196 181.133 195.6 180.2 194.8C179.4 194 179 192.867 179 191.4V183.8C179 182.333 179.4 181.2 180.2 180.4C181.133 179.467 182.267 179 183.6 179H263.4C264.867 179 266 179.467 266.8 180.4C267.733 181.2 268.2 182.333 268.2 183.8V191C268.2 191.933 267.933 192.8 267.4 193.6C267 194.267 266.533 194.933 266 195.6L227.4 238.6L230.6 238.8C239.4 239.067 247.067 240.667 253.6 243.6C260.267 246.533 265.4 250.933 269 256.8C272.733 262.533 274.6 269.8 274.6 278.6C274.6 287.533 272.4 295.2 268 301.6C263.6 307.867 257.533 312.667 249.8 316C242.067 319.333 233.333 321 223.6 321ZM302.117 319C300.784 319 299.651 318.6 298.717 317.8C297.917 316.867 297.517 315.733 297.517 314.4V300C297.517 298.667 297.917 297.6 298.717 296.8C299.651 295.867 300.784 295.4 302.117 295.4H316.517C317.851 295.4 318.917 295.867 319.717 296.8C320.651 297.6 321.117 298.667 321.117 300V314.4C321.117 315.733 320.651 316.867 319.717 317.8C318.917 318.6 317.851 319 316.517 319H302.117Z" fill="black"/>
</svg>
