<svg width="500" height="500" viewBox="0 0 500 500" fill="none" xmlns="http://www.w3.org/2000/svg">
<circle cx="250" cy="250" r="250" fill="#64E380"/>
<path d="M180.4 319C179.067 319 177.933 318.6 177 317.8C176.2 316.867 175.8 315.733 175.8 314.4V308C175.8 306.8 176.133 305.467 176.8 304C177.467 302.533 178.8 300.933 180.8 299.2L223.2 256.8C230 251.067 235.333 246.2 239.2 242.2C243.2 238.067 246 234.133 247.6 230.4C249.333 226.667 250.2 222.8 250.2 218.8C250.2 211.2 248.067 205.2 243.8 200.8C239.533 196.267 233.2 194 224.8 194C219.467 194 214.867 195.133 211 197.4C207.133 199.533 204.067 202.533 201.8 206.4C199.667 210.133 198.267 214.4 197.6 219.2C197.333 220.933 196.6 222.133 195.4 222.8C194.333 223.467 193.333 223.8 192.4 223.8H182C180.8 223.8 179.8 223.467 179 222.8C178.2 222 177.8 221.067 177.8 220C177.933 214.933 179 209.867 181 204.8C183 199.6 185.933 194.933 189.8 190.8C193.8 186.667 198.667 183.333 204.4 180.8C210.267 178.133 217.067 176.8 224.8 176.8C235.333 176.8 243.933 178.733 250.6 182.6C257.4 186.333 262.4 191.333 265.6 197.6C268.8 203.867 270.4 210.733 270.4 218.2C270.4 224.067 269.4 229.467 267.4 234.4C265.4 239.2 262.467 243.933 258.6 248.6C254.867 253.133 250.2 257.8 244.6 262.6L206.2 301.6H268.6C270.067 301.6 271.2 302 272 302.8C272.933 303.6 273.4 304.733 273.4 306.2V314.4C273.4 315.733 272.933 316.867 272 317.8C271.2 318.6 270.067 319 268.6 319H180.4ZM301.383 319C300.049 319 298.916 318.6 297.983 317.8C297.183 316.867 296.783 315.733 296.783 314.4V300C296.783 298.667 297.183 297.6 297.983 296.8C298.916 295.867 300.049 295.4 301.383 295.4H315.783C317.116 295.4 318.183 295.867 318.983 296.8C319.916 297.6 320.383 298.667 320.383 300V314.4C320.383 315.733 319.916 316.867 318.983 317.8C318.183 318.6 317.116 319 315.783 319H301.383Z" fill="black"/>
</svg>
