<svg width="500" height="500" viewBox="0 0 500 500" fill="none" xmlns="http://www.w3.org/2000/svg">
<circle cx="250" cy="250" r="250" fill="#64E380"/>
<path d="M237.2 319C235.867 319 234.733 318.6 233.8 317.8C233 316.867 232.6 315.733 232.6 314.4V202.4L199.4 228C198.333 228.8 197.2 229.133 196 229C194.8 228.867 193.8 228.267 193 227.2L187.8 220.6C187 219.4 186.667 218.2 186.8 217C187.067 215.8 187.733 214.8 188.8 214L232.4 180.4C233.333 179.733 234.2 179.333 235 179.2C235.8 179.067 236.667 179 237.6 179H247.8C249.133 179 250.2 179.467 251 180.4C251.8 181.2 252.2 182.267 252.2 183.6V314.4C252.2 315.733 251.8 316.867 251 317.8C250.2 318.6 249.133 319 247.8 319H237.2ZM285.547 319C284.214 319 283.08 318.6 282.147 317.8C281.347 316.867 280.947 315.733 280.947 314.4V300C280.947 298.667 281.347 297.6 282.147 296.8C283.08 295.867 284.214 295.4 285.547 295.4H299.947C301.28 295.4 302.347 295.867 303.147 296.8C304.08 297.6 304.547 298.667 304.547 300V314.4C304.547 315.733 304.08 316.867 303.147 317.8C302.347 318.6 301.28 319 299.947 319H285.547Z" fill="black"/>
</svg>
