<svg width="1439" height="113" viewBox="0 0 1439 113" fill="none" xmlns="http://www.w3.org/2000/svg">
<path d="M188 42.5L0 112H1438V87.8763L1399.89 100.309L1303.63 67.6495L1155.71 40L1048.92 62.6392L934.6 35.5464H847.5L766 1.5L662.5 35.5464L580.5 71L497.5 56.5L340.5 88.5L188 42.5Z" fill="url(#paint0_linear_599_491)" stroke="url(#paint1_linear_599_491)"/>
<path d="M956.626 77.3665L935.789 35.5767L992.432 49.3416L1049.08 63.1065L956.626 77.3665Z" fill="#9E9E9E" stroke="#9E9E9E"/>
<path d="M778.161 47.3429L765 1L805.784 18.2458L846.568 35.4916L778.161 47.3429Z" fill="#9E9E9E" stroke="#9E9E9E"/>
<path d="M1183.61 86.4783L1157.97 41.0283L1287.27 65.8159L1183.61 86.4783Z" fill="#8F8F8F" stroke="#8F8F8F"/>
<defs>
<linearGradient id="paint0_linear_599_491" x1="1438" y1="21.9997" x2="-2.29943e-07" y2="21.9997" gradientUnits="userSpaceOnUse">
<stop stop-color="#989898"/>
<stop offset="1" stop-color="#B9B9B9" stop-opacity="0.15"/>
</linearGradient>
<linearGradient id="paint1_linear_599_491" x1="1430" y1="31.9999" x2="3.91644e-05" y2="37.5" gradientUnits="userSpaceOnUse">
<stop stop-color="#989898"/>
<stop offset="1" stop-color="#B9B9B9" stop-opacity="0.15"/>
</linearGradient>
</defs>
</svg>
