<svg width="1439" height="113" viewBox="0 0 1439 113" fill="none" xmlns="http://www.w3.org/2000/svg">
<path d="M188 42.5L0 112H1438V87L1389 101.5L1287.5 64.5L1155.71 40L1048.92 62.6392L934.6 35.5464H847.5L766 1.5L662.5 35.5464L580.5 71L497.5 56.5L340.5 88.5L188 42.5Z" fill="url(#paint0_linear_599_491)" stroke="url(#paint1_linear_599_491)"/>
<path d="M956.837 78.9412L935.5 36.5L993 50.5L1048.5 63.5L956.837 78.9412Z" fill="#9E9E9E" stroke="#9E9E9E"/>
<path d="M779.936 47.5012L766.996 3.00635L806.748 19.5472L845.534 35.8608L779.936 47.5012Z" fill="#9E9E9E" stroke="#9E9E9E"/>
<path d="M1183 71.0063L1157 41.0103L1287.5 65.4902L1183 71.0063Z" fill="#8F8F8F" stroke="#8F8F8F"/>
<defs>
<linearGradient id="paint0_linear_599_491" x1="1438" y1="21.9997" x2="-2.29943e-07" y2="21.9997" gradientUnits="userSpaceOnUse">
<stop stop-color="#989898"/>
<stop offset="1" stop-color="#B9B9B9" stop-opacity="0.15"/>
</linearGradient>
<linearGradient id="paint1_linear_599_491" x1="1430" y1="31.9999" x2="3.91644e-05" y2="37.5" gradientUnits="userSpaceOnUse">
<stop stop-color="#989898"/>
<stop offset="1" stop-color="#B9B9B9" stop-opacity="0.15"/>
</linearGradient>
</defs>
</svg>
